HIERARCHY
ROOT hip
{
  OFFSET 0 0 0
  CHANNELS 6 Xposition Yposition Zposition Zrotation Yrotation Xrotation
  JOINT abdomen
  {
    OFFSET 0 20.6881 -0.73152
    CHANNELS 3 Zrotation Xrotation Yrotation
    JOINT chest
    {
      OFFSET 0 11.7043 -0.48768
      CHANNELS 3 Zrotation Xrotation Yrotation
      JOINT neck
      {
        OFFSET 0 22.1894 -2.19456
        CHANNELS 3 Zrotation Xrotation Yrotation
        JOINT head
        {
          OFFSET -0.24384 7.07133 1.2192
          CHANNELS 3 Zrotation Xrotation Yrotation
          JOINT leftEye
          {
            OFFSET 4.14528 8.04674 8.04672
            CHANNELS 3 Zrotation Xrotation Yrotation
            End Site
            {
              OFFSET 1 0 0
            }
          }
          JOINT rightEye
          {
            OFFSET -3.6576 8.04674 8.04672
            CHANNELS 3 Zrotation Xrotation Yrotation
            End Site
            {
              OFFSET 1 0 0
            }
          }
        }
      }
      JOINT rCollar
      {
        OFFSET -2.68224 19.2634 -4.8768
        CHANNELS 3 Zrotation Xrotation Yrotation
        JOINT rShldr
        {
          OFFSET -8.77824 -1.95073 1.46304
          CHANNELS 3 Zrotation Xrotation Yrotation
          JOINT rForeArm
          {
            OFFSET -28.1742 -1.7115 0.48768
            CHANNELS 3 Zrotation Xrotation Yrotation
            JOINT rHand
            {
              OFFSET -22.5879 0.773209 7.07136
              CHANNELS 3 Zrotation Xrotation Yrotation
              JOINT rThumb1
              {
                OFFSET -1.2192 -0.487915 3.41376
                CHANNELS 3 Zrotation Xrotation Yrotation
                JOINT rThumb2
                {
                  OFFSET -3.37035 -0.52449 3.41376
                  CHANNELS 3 Zrotation Xrotation Yrotation
                  End Site
                  {
                    OFFSET -1.78271 -1.18214 1.43049
                  }
                }
              }
              JOINT rIndex1
              {
                OFFSET -7.75947 0.938293 5.60832
                CHANNELS 3 Zrotation Xrotation Yrotation
                JOINT rIndex2
                {
                  OFFSET -2.54057 -0.884171 1.56538
                  CHANNELS 3 Zrotation Xrotation Yrotation
                  End Site
                  {
                    OFFSET -1.62519 -0.234802 1.16502
                  }
                }
              }
              JOINT rMid1
              {
                OFFSET -8.24714 1.18213 3.41376
                CHANNELS 3 Zrotation Xrotation Yrotation
                JOINT rMid2
                {
                  OFFSET -3.10165 -0.590103 1.0647
                  CHANNELS 3 Zrotation Xrotation Yrotation
                  End Site
                  {
                    OFFSET -2.48547 -0.328903 0.83742
                  }
                }
              }
              JOINT rRing1
              {
                OFFSET -8.82822 0.546677 1.51678
                CHANNELS 3 Zrotation Xrotation Yrotation
                JOINT rRing2
                {
                  OFFSET -2.60934 -0.819778 -0.0198488
                  CHANNELS 3 Zrotation Xrotation Yrotation
                  End Site
                  {
                    OFFSET -2.33842 -0.294052 0.168128
                  }
                }
              }
              JOINT rPinky1
              {
                OFFSET -8.27202 -0.0477905 -0.4584
                CHANNELS 3 Zrotation Xrotation Yrotation
                JOINT rPinky2
                {
                  OFFSET -1.82734 -0.647385 -0.700984
                  CHANNELS 3 Zrotation Xrotation Yrotation
                  End Site
                  {
                    OFFSET -1.69225 -0.51767 -0.607171
                  }
                }
              }
            }
          }
        }
      }
      JOINT lCollar
      {
        OFFSET 2.68224 19.2634 -4.8768
        CHANNELS 3 Zrotation Xrotation Yrotation
        JOINT lShldr
        {
          OFFSET 8.77824 -1.95073 1.46304
          CHANNELS 3 Zrotation Xrotation Yrotation
          JOINT lForeArm
          {
            OFFSET 28.1742 -1.7115 0.48768
            CHANNELS 3 Zrotation Xrotation Yrotation
            JOINT lHand
            {
              OFFSET 22.5879 0.773209 7.07136
              CHANNELS 3 Zrotation Xrotation Yrotation
              JOINT lThumb1
              {
                OFFSET 1.2192 -0.487915 3.41376
                CHANNELS 3 Zrotation Xrotation Yrotation
                JOINT lThumb2
                {
                  OFFSET 3.37035 -0.52449 3.41376
                  CHANNELS 3 Zrotation Xrotation Yrotation
                  End Site
                  {
                    OFFSET 1.78271 -1.18214 1.43049
                  }
                }
              }
              JOINT lIndex1
              {
                OFFSET 7.75947 0.938293 5.60832
                CHANNELS 3 Zrotation Xrotation Yrotation
                JOINT lIndex2
                {
                  OFFSET 2.54057 -0.884171 1.56538
                  CHANNELS 3 Zrotation Xrotation Yrotation
                  End Site
                  {
                    OFFSET 1.62519 -0.234802 1.16502
                  }
                }
              }
              JOINT lMid1
              {
                OFFSET 8.24714 1.18213 3.41376
                CHANNELS 3 Zrotation Xrotation Yrotation
                JOINT lMid2
                {
                  OFFSET 3.10165 -0.590103 1.0647
                  CHANNELS 3 Zrotation Xrotation Yrotation
                  End Site
                  {
                    OFFSET 2.48547 -0.328903 0.83742
                  }
                }
              }
              JOINT lRing1
              {
                OFFSET 8.82822 0.546677 1.51678
                CHANNELS 3 Zrotation Xrotation Yrotation
                JOINT lRing2
                {
                  OFFSET 2.60934 -0.819778 -0.0198488
                  CHANNELS 3 Zrotation Xrotation Yrotation
                  End Site
                  {
                    OFFSET 2.33842 -0.294052 0.168128
                  }
                }
              }
              JOINT lPinky1
              {
                OFFSET 8.27202 -0.0477905 -0.4584
                CHANNELS 3 Zrotation Xrotation Yrotation
                JOINT lPinky2
                {
                  OFFSET 1.82734 -0.647385 -0.700984
                  CHANNELS 3 Zrotation Xrotation Yrotation
                  End Site
                  {
                    OFFSET 1.69225 -0.51767 -0.607171
                  }
                }
              }
            }
          }
        }
      }
    }
  }
  JOINT rButtock
  {
    OFFSET -8.77824 4.35084 1.2192
    CHANNELS 3 Zrotation Xrotation Yrotation
    JOINT rThigh
    {
      OFFSET 0 -1.70687 -2.19456
      CHANNELS 3 Zrotation Xrotation Yrotation
      JOINT rShin
      {
        OFFSET 0 -36.8199 0.73152
        CHANNELS 3 Zrotation Xrotation Yrotation
        JOINT rFoot
        {
          OFFSET 0.73152 -45.1104 -5.12064
          CHANNELS 3 Zrotation Xrotation Yrotation
          End Site
          {
            OFFSET -1.1221 -3.69964 12.103
          }
        }
      }
    }
  }
  JOINT lButtock
  {
    OFFSET 8.77824 4.35084 1.2192
    CHANNELS 3 Zrotation Xrotation Yrotation
    JOINT lThigh
    {
      OFFSET 0 -1.70687 -2.19456
      CHANNELS 3 Zrotation Xrotation Yrotation
      JOINT lShin
      {
        OFFSET 0 -36.8199 0.73152
        CHANNELS 3 Zrotation Xrotation Yrotation
        JOINT lFoot
        {
          OFFSET -0.73152 -45.1104 -5.12064
          CHANNELS 3 Zrotation Xrotation Yrotation
          End Site
          {
            OFFSET 1.1221 -3.69964 12.103
          }
        }
      }
    }
  }
}
MOTION
Frames:	4
Frame Time:	0.03333
-27.31836888860585 42.71858488076601 5.7066954355426 7.081389427185059 -70.43560791015625 -18.111629486083984 -4.003125190734863 14.19589900970459 0.2870122790336609 6.2312726974487305 -8.192061424255371 0.12624001502990723 -8.004622459411621 13.169827461242676 -9.877167701721191 6.332755088806152 -18.38155746459961 -17.57005500793457 0.03176092356443405 -0.6908431053161621 -0.7564532160758972 -0.38495078682899475 0.6984485983848572 0.09631454944610596 -0.3761207163333893 0.6012893319129944 0.04222012683749199 37.98868179321289 1.390942931175232 61.53668975830078 -20.332279205322266 -15.345301628112793 40.541622161865234 -1.3648724555969238 1.053418755531311 -0.2177673876285553 -0.044841643422842026 0.7524586915969849 0.17693988978862762 -0.2095145732164383 -0.07949785888195038 0.5683826804161072 -0.12234289944171906 -0.2755248546600342 -0.051144346594810486 8.011947631835938 5.892488479614258 0.23391929268836975 -0.6349748373031616 -0.29085007309913635 0.10833314061164856 2.6755032539367676 1.397841215133667 0.20454652607440948 -0.3159468472003937 -0.4375586211681366 0.19753623008728027 10.802352905273438 0.9393476247787476 -0.4042104184627533 0.2634706199169159 -0.02691393904387951 -0.19602477550506592 2.1154675483703613 0.4186459481716156 0.4070959687232971 -0.1840498149394989 -0.11007735133171082 0.34463638067245483 -95.07511138916016 68.77989959716797 11.989534378051758 28.0189208984375 -36.8697395324707 -78.00495147705078 3.0237812995910645 -41.9383430480957 6.703733444213867 -0.5399022698402405 -0.02739049308001995 -0.0290321446955204 0.28174835443496704 0.33348575234413147 -0.6821948885917664 -0.9274165034294128 0.4472450017929077 0.06143346428871155 -8.062031745910645 6.144604682922363 -0.05840227007865906 -0.6397852897644043 -0.06608635187149048 -0.05468679964542389 -2.712184429168701 1.4160081148147583 -0.3216003477573395 0.32116201519966125 0.05179473012685776 -0.35920193791389465 -9.885680198669434 0.18743358552455902 0.3022458553314209 0.5941528081893921 -0.3973166048526764 -0.08051634579896927 -2.6840357780456543 -0.6418456435203552 0.2406063973903656 -0.3263852000236511 -0.6501383185386658 -0.0982392206788063 -21.758731842041016 -41.550987243652344 -3.4678690433502197 -0.8436594605445862 34.42713928222656 0.49594107270240784 -2.5908634662628174 22.217893600463867 6.767735481262207 0.23626689612865448 0.062471453100442886 0.2279498130083084 6.715944290161133 -14.13284969329834 -5.706514358520508 0.7140759825706482 49.1815071105957 -1.1124135255813599 8.66307258605957 -14.358981132507324 18.985172271728516
-28.47521979955889 42.13853789569185 4.682712621400642 10.309849739074707 -70.75717163085938 -16.604206085205078 -6.0386857986450195 14.056279182434082 2.5122995376586914 5.250045299530029 -8.299297332763672 0.5658681392669678 -8.277114868164062 13.043575286865234 -10.645529747009277 6.694708347320557 -18.74869728088379 -19.155763626098633 0.36499372124671936 -0.40298789739608765 -0.5798194408416748 -0.24403896927833557 0.851172149181366 0.05370282009243965 -0.0909377709031105 0.3681878447532654 0.026698824018239975 35.7159538269043 -3.869079113006592 64.4799575805664 -14.561071395874023 -8.3002347946167 27.210281372070312 -1.088348150253296 14.00241470336914 1.6490814685821533 -0.04715299978852272 0.9618425369262695 0.2262423187494278 -0.19319771230220795 -0.17961935698986053 0.4370412528514862 -0.05910240486264229 -0.2104746401309967 -0.18828220665454865 8.196122169494629 5.833454132080078 0.306863933801651 -0.6160858273506165 -0.09214747697114944 -0.20784391462802887 2.9932827949523926 1.2569760084152222 0.30001845955848694 -0.32758763432502747 -0.3643157482147217 0.17508451640605927 10.744945526123047 0.8365141749382019 -0.5540647506713867 0.43542298674583435 0.13758458197116852 -0.028512610122561455 2.180539608001709 0.38272297382354736 0.3569192886352539 -0.2616598308086395 -0.01840105466544628 0.1900498867034912 -110.36837768554688 62.05068588256836 34.396087646484375 27.88551139831543 -39.18166732788086 -82.34752655029297 5.31799840927124 -53.118045806884766 10.425740242004395 -0.291740357875824 0.12856854498386383 -0.20841999351978302 0.2627507150173187 0.19814686477184296 -0.7669993042945862 -0.858526349067688 0.3855739235877991 0.023077312856912613 -7.865577220916748 5.867676258087158 -0.01854391023516655 -0.7554881572723389 -0.0681658536195755 0.05229788273572922 -2.6659231185913086 1.4956780672073364 -0.04409656301140785 0.09872481971979141 -0.05628152936697006 -0.20065003633499146 -10.04467487335205 0.2948591411113739 0.28458306193351746 0.6380476355552673 -0.025471774861216545 -0.18246673047542572 -2.848071813583374 -0.6773797869682312 0.21328257024288177 -0.17701183259487152 -0.20649346709251404 -0.190247043967247 -23.051279067993164 -41.0930061340332 -4.4504008293151855 -0.8318737745285034 36.13914489746094 0.25414514541625977 -2.110816478729248 19.522924423217773 5.303286075592041 0.02622794732451439 0.09052246809005737 0.032984405755996704 6.047057151794434 -11.990008354187012 -6.681408882141113 0.5736716389656067 48.66007995605469 -1.0939298868179321 8.988664627075195 -14.680713653564453 20.89581871032715
-29.431681284556806 41.68220612705412 3.7290593046469533 14.707606315612793 -70.78433990478516 -15.885099411010742 -8.789674758911133 13.714726448059082 4.513785362243652 4.473257541656494 -8.51286506652832 0.932465136051178 -8.547810554504395 13.128060340881348 -11.558945655822754 7.435829162597656 -19.532344818115234 -20.892107009887695 0.540936291217804 -0.06775215268135071 -0.375646710395813 -0.14387668669223785 0.8931601047515869 0.06451033800840378 0.11079536378383636 -0.009081132709980011 -0.12615424394607544 33.09141159057617 -7.8398213386535645 64.88286590576172 -10.710866928100586 -3.8699474334716797 18.885196685791016 -0.7800437211990356 20.868717193603516 2.74894642829895 -0.1072716936469078 0.8886616826057434 0.13318249583244324 -0.11602671444416046 -0.15792955458164215 0.18729111552238464 0.059036917984485626 -0.06911627948284149 -0.1393401324748993 8.436880111694336 5.7970781326293945 0.46600350737571716 -0.49475833773612976 0.10153859853744507 -0.3835805356502533 3.17071270942688 1.035396933555603 0.3256954848766327 -0.32304224371910095 -0.13983958959579468 0.05760427936911583 10.641144752502441 0.9145143628120422 -0.4616956412792206 0.48649680614471436 0.18825986981391907 0.08297093212604523 2.0712804794311523 0.14720498025417328 0.2891543209552765 -0.37421125173568726 -0.13413703441619873 0.09839275479316711 -114.06900787353516 53.540836334228516 44.89427947998047 27.781375885009766 -40.7911262512207 -85.546630859375 8.333067893981934 -60.81816482543945 14.603196144104004 -0.011805287562310696 0.25728878378868103 -0.22095909714698792 0.14628885686397552 0.11410661786794662 -0.7069103717803955 -0.5651291012763977 0.25557172298431396 -0.22870773077011108 -7.787286758422852 5.650006294250488 -0.03389749303460121 -0.7793824672698975 0.07225082069635391 0.18154655396938324 -2.739022731781006 1.4778724908828735 0.13652455806732178 -0.059169333428144455 -0.21917815506458282 -0.11266012489795685 -10.31368637084961 0.41515862941741943 0.20794115960597992 0.6040292382240295 0.24598588049411774 -0.32996904850006104 -2.7846388816833496 -0.7047653198242188 0.09556175023317337 0.05126311257481575 0.11995924264192581 -0.1617119163274765 -25.3286075592041 -42.56838607788086 -7.3433837890625 -0.7715702652931213 40.07144546508789 0.15850764513015747 -1.3391449451446533 16.122190475463867 5.812265872955322 -0.18107789754867554 0.1403931826353073 -0.2662705183029175 5.066291332244873 -8.824955940246582 -7.696793079376221 0.4598345160484314 46.79768753051758 -1.191247582435608 10.101961135864258 -15.316377639770508 24.21752166748047
-30.099467812491895 41.40162195595 2.989790738262008 18.75035285949707 -70.38081359863281 -16.005313873291016 -10.82741641998291 13.619315147399902 5.8230814933776855 3.865225076675415 -8.848280906677246 1.2553634643554688 -8.611810684204102 13.386730194091797 -12.183015823364258 8.208415031433105 -20.4156436920166 -21.91783905029297 0.5328665971755981 0.13864746689796448 -0.1810961812734604 -0.07442720979452133 0.8470146059989929 0.026986390352249146 0.19363509118556976 -0.2395479530096054 -0.24848106503486633 30.454633712768555 -9.894964218139648 63.947425842285156 -9.42258071899414 -2.593832492828369 16.038970947265625 -0.4087129533290863 21.821678161621094 3.043532371520996 -0.1765647977590561 0.622468888759613 0.07580692321062088 -0.03626694902777672 -0.03654693812131882 0.07223515957593918 0.19576698541641235 0.13383696973323822 0.03089834749698639 8.574989318847656 5.771748065948486 0.5949677228927612 -0.41348960995674133 0.24428249895572662 -0.48779451847076416 3.180567502975464 0.9784550666809082 0.2883549928665161 -0.37729525566101074 0.08202020078897476 -0.11314387619495392 10.481168746948242 0.9849649667739868 -0.3767719268798828 0.34430697560310364 0.2516026496887207 0.1794005185365677 1.9634848833084106 -0.1317445933818817 0.2577114999294281 -0.4846629500389099 -0.30007752776145935 0.07939884066581726 -113.16104125976562 47.984134674072266 48.09482192993164 27.818866729736328 -41.66182327270508 -86.77601623535156 9.919275283813477 -63.72294998168945 16.60022735595703 0.19904085993766785 0.3673352599143982 -0.12066889554262161 0.05299093946814537 0.11725443601608276 -0.5691405534744263 -0.29239386320114136 0.14144697785377502 -0.4123590290546417 -7.745723724365234 5.567763328552246 -0.14279881119728088 -0.738305926322937 0.18535977602005005 0.2926345765590668 -2.857213258743286 1.4714168310165405 0.09739077091217041 -0.01693556271493435 -0.3720531165599823 -0.04768197238445282 -10.549986839294434 0.5691885352134705 0.10439575463533401 0.4529381990432739 0.3816152811050415 -0.4576531648635864 -2.6894164085388184 -0.7206044793128967 0.055561844259500504 0.26653411984443665 0.18345774710178375 -0.14293397963047028 -27.359416961669922 -44.428306579589844 -10.857017517089844 -0.7357342839241028 44.64714813232422 0.2684474289417267 -0.8429042100906372 12.970094680786133 6.82666015625 -0.321673721075058 0.1057051569223404 -0.4495597183704376 4.611525535583496 -6.427785873413086 -8.458915710449219 0.48406994342803955 45.5888671875 -1.376798152923584 11.392326354980469 -15.777471542358398 27.245933532714844
